<svg xmlns="http://www.w3.org/2000/svg" xmlns:xlink="http://www.w3.org/1999/xlink" width="668" height="736" viewBox="0 0 668 736">
  <defs>
    <clipPath id="clip-path">
      <rect id="Rectangle_6" data-name="Rectangle 6" width="668" height="736" fill="#fff"/>
    </clipPath>
    <linearGradient id="linear-gradient" x1="0.5" x2="0.5" y2="1" gradientUnits="objectBoundingBox">
      <stop offset="0" stop-color="#4bb58c" stop-opacity="0.725"/>
      <stop offset="1" stop-color="#4bb58c" stop-opacity="0"/>
    </linearGradient>
  </defs>
  <g id="Mask_Group_1" data-name="Mask Group 1" clip-path="url(#clip-path)">
    <g id="Group_6" data-name="Group 6" transform="translate(-225.551 -342.338)">
      <path id="Path_8" data-name="Path 8" d="M173.673-433c246.753,0,446.673,199.928,446.673,446.691s-196.7,624.958-446.673,624.958S-273,260.162-273,13.691-73.08-433,173.673-433Z" transform="translate(273 433)" fill="#f3fbf8"/>
    </g>
    <g id="Group_517" data-name="Group 517" transform="translate(167.105 324)">
      <path id="Subtraction_3" data-name="Subtraction 3" d="M0,52.183V0H52.183V6.31H6.313V52.183H0Z" transform="translate(8 8)" fill="#e0656b"/>
      <path id="Subtraction_2" data-name="Subtraction 2" d="M45.87,52.183V6.31H0V0H52.183V52.183H45.87Z" transform="translate(122.712 8)" fill="#e0656b"/>
      <path id="Path_28" data-name="Path 28" d="M60.6,10.956a46.6,46.6,0,0,1,46.6,46.6c0,25.736-20.528,65.219-46.6,65.219S14.005,83.289,14.005,57.553A46.6,46.6,0,0,1,60.6,10.956" transform="translate(31.227 24.962)" fill="#c0e5d7"/>
      <path id="Subtraction_1" data-name="Subtraction 1" d="M45.858,56.229a29.842,29.842,0,0,1-16.4-5.268A54.658,54.658,0,0,1,15.694,37.494,80.867,80.867,0,0,1,10.1,28.782a91.468,91.468,0,0,1-4.561-9.445A85.847,85.847,0,0,1,0,0H91.719a85.843,85.843,0,0,1-5.544,19.337,91.46,91.46,0,0,1-4.561,9.445,80.848,80.848,0,0,1-5.589,8.711A54.657,54.657,0,0,1,62.257,50.96,29.847,29.847,0,0,1,45.858,56.229Z" transform="translate(45.968 91.506)" fill="#4bb58c" stroke="rgba(0,0,0,0)" stroke-width="1"/>
      <rect id="Rectangle_14" data-name="Rectangle 14" width="167" height="84" transform="translate(7.895 91.826)" fill="url(#linear-gradient)"/>
      <line id="Line_2" data-name="Line 2" x2="167" transform="translate(7.895 91.506)" fill="none" stroke="#101011" stroke-width="4"/>
      <g id="Group_11" data-name="Group 11" transform="translate(-240.88 -308.807)">
        <rect id="Rectangle_12" data-name="Rectangle 12" width="29.35" height="29.35" rx="14.675" transform="translate(353.495 349.495)" fill="#4bb58c"/>
        <path id="Path_31" data-name="Path 31" d="M157.36,192.784a1.34,1.34,0,0,1-.855.427,1.4,1.4,0,0,1-.865-.437l-5.44-5.44,1.729-1.729,4.585,4.585,7.777-7.914,1.7,1.758Z" transform="translate(209.605 176.456)" fill="#fff" stroke="#fff" stroke-width="1"/>
      </g>
      <path id="Subtraction_4" data-name="Subtraction 4" d="M52.183,52.183H0v-6.31H45.87V0h6.312V52.183Z" transform="translate(122.712 123.469)" fill="#e0656b"/>
      <path id="Subtraction_5" data-name="Subtraction 5" d="M52.183,52.183H0V0H6.313V45.873h45.87v6.309Z" transform="translate(8 123.469)" fill="#e0656b"/>
    </g>
  </g>
</svg>
