<svg id="Component_530_3" data-name="Component 530 – 3" xmlns="http://www.w3.org/2000/svg" width="32" height="32" viewBox="0 0 32 32">
  <g id="Rectangle_44" data-name="Rectangle 44" fill="#fff" stroke="#707070" stroke-width="1" opacity="0">
    <rect width="32" height="32" stroke="none"/>
    <rect x="0.5" y="0.5" width="31" height="31" fill="none"/>
  </g>
  <path id="Path_40" data-name="Path 40" d="M21.435,4.286H20.292V3.143a1.143,1.143,0,0,0-2.286,0V4.286H8.859V3.143A1.08,1.08,0,0,0,7.716,2,1.08,1.08,0,0,0,6.573,3.143V4.286H5.43A3.369,3.369,0,0,0,2,7.716V8.859H24.865V7.716A3.369,3.369,0,0,0,21.435,4.286ZM2,21.435a3.369,3.369,0,0,0,3.43,3.43H21.435a3.369,3.369,0,0,0,3.43-3.43V11.146H2Zm17.149-8a1.143,1.143,0,1,1-1.143,1.143A1.08,1.08,0,0,1,19.149,13.432Zm0,4.573a1.143,1.143,0,1,1-1.143,1.143A1.08,1.08,0,0,1,19.149,18.005Zm-5.716-4.573a1.143,1.143,0,1,1-1.143,1.143A1.08,1.08,0,0,1,13.432,13.432Zm0,4.573a1.143,1.143,0,1,1-1.143,1.143A1.08,1.08,0,0,1,13.432,18.005ZM7.716,13.432a1.143,1.143,0,0,1,0,2.286,1.143,1.143,0,0,1,0-2.286Zm0,4.573a1.143,1.143,0,0,1,0,2.286,1.143,1.143,0,0,1,0-2.286Z" transform="translate(2.567 2.568)" fill="#4bb58c"/>
</svg>
