<svg xmlns="http://www.w3.org/2000/svg" width="32" height="32" viewBox="0 0 32 32">
  <g id="Group_573" data-name="Group 573" transform="translate(-15 -13)">
    <g id="Rectangle_44" data-name="Rectangle 44" transform="translate(15 13)" fill="#fff" stroke="#707070" stroke-width="1" opacity="0">
      <rect width="32" height="32" stroke="none"/>
      <rect x="0.5" y="0.5" width="31" height="31" fill="none"/>
    </g>
    <path id="Path_42" data-name="Path 42" d="M17.75,21.588,16.1,23.253V16.091a1.281,1.281,0,1,0-2.563,0v7.163l-1.653-1.666a1.287,1.287,0,1,0-1.819,1.819l3.844,3.844a1.281,1.281,0,0,0,.423.269,1.2,1.2,0,0,0,.974,0,1.281,1.281,0,0,0,.423-.269l3.844-3.844a1.287,1.287,0,0,0-1.819-1.819ZM23.042,7.4A8.969,8.969,0,0,0,5.923,9.825a5.125,5.125,0,0,0,1.2,10.11,1.281,1.281,0,1,0,0-2.563,2.563,2.563,0,0,1,0-5.125,1.281,1.281,0,0,0,1.281-1.281A6.407,6.407,0,0,1,20.876,8.9a1.281,1.281,0,0,0,1,.858,3.844,3.844,0,0,1,.308,7.483,1.283,1.283,0,0,0,.641,2.486A6.407,6.407,0,0,0,23.042,7.4Z" transform="translate(16.207 14.182)" fill="#4bb58c"/>
  </g>
</svg>
