<svg xmlns="http://www.w3.org/2000/svg" width="30" height="30" viewBox="0 0 30 30">
  <g id="Group_1241" data-name="Group 1241" transform="translate(-309.151 -404.151)">
    <rect id="Rectangle_44" data-name="Rectangle 44" width="30" height="30" rx="15" transform="translate(309.151 404.151)" fill="#f4f8fb" opacity="0"/>
    <path id="Path_41" data-name="Path 41" d="M19.46,10.054,9.2,20.319a4.3,4.3,0,0,1-2,1.13l-3.937.984a.859.859,0,0,1-1.042-1.042l.984-3.937a4.3,4.3,0,0,1,1.13-2L14.6,5.194Zm2.432-7.29a3.437,3.437,0,0,1,0,4.861L20.675,8.839,15.814,3.978l1.216-1.214A3.437,3.437,0,0,1,21.892,2.764Z" transform="translate(311.604 407.042)" fill="#fff"/>
  </g>
</svg>
