<svg id="Component_562_3" data-name="Component 562 – 3" xmlns="http://www.w3.org/2000/svg" width="32" height="32" viewBox="0 0 32 32">
  <rect id="Rectangle_44" data-name="Rectangle 44" width="32" height="32" rx="16" fill="#f4f8fb" opacity="0"/>
  <path id="Path_41" data-name="Path 41" d="M12.537,6.727,6.39,12.876a2.574,2.574,0,0,1-1.2.677l-2.358.59a.515.515,0,0,1-.624-.624L2.8,11.16a2.574,2.574,0,0,1,.677-1.2L9.626,3.816Zm1.457-4.367a2.059,2.059,0,0,1,0,2.912L13.265,6,10.354,3.088l.729-.727A2.059,2.059,0,0,1,13.994,2.361Z" transform="translate(7.604 8.042)" fill="#7b858e"/>
</svg>
