<svg xmlns="http://www.w3.org/2000/svg" width="58" height="58" viewBox="0 0 58 58">
  <g id="Group_521" data-name="Group 521" transform="translate(-366.311 -23.467)">
    <rect id="Rectangle_58" data-name="Rectangle 58" width="58" height="58" transform="translate(366.311 23.467)" fill="#101011" opacity="0"/>
    <circle id="Ellipse_23" data-name="Ellipse 23" cx="22.5" cy="22.5" r="22.5" transform="translate(370.311 30.467)" fill="#4bb58c" opacity="0.125"/>
    <path id="Shape" d="M.008,4.269a3.016,3.016,0,1,1,2.13.881A3.016,3.016,0,0,1,.008,4.269Z" transform="translate(413.173 67.288)" fill="#4bb58c" opacity="0.25"/>
    <path id="Path" d="M7.165,5.822A1.489,1.489,0,0,1,6.11,5.384L4.329,3.6,2.548,5.384A1.493,1.493,0,0,1,.437,3.273L3.274.437a1.493,1.493,0,0,1,2.111,0L8.221,3.273A1.493,1.493,0,0,1,7.165,5.822Z" transform="translate(415.311 28.646)" fill="#4bb58c" opacity="0.3"/>
    <g id="Group_524" data-name="Group 524" transform="translate(-4.024 -4.523)">
      <path id="Path_36" data-name="Path 36" d="M17.585,0H3.462A3.466,3.466,0,0,0,0,3.462V17.581a3.467,3.467,0,0,0,3.459,3.466H17.585a3.463,3.463,0,0,0,3.462-3.459V3.462A3.467,3.467,0,0,0,17.585,0m2.183,17.58a2.184,2.184,0,0,1-2.181,2.187H3.462a2.188,2.188,0,0,1-2.186-2.186V3.462A2.188,2.188,0,0,1,3.462,1.276H17.581a2.189,2.189,0,0,1,2.186,2.186Z" transform="translate(386.311 46.467)" fill="#4bb58c" stroke="#4bb58c" stroke-width="1"/>
      <path id="Path_37" data-name="Path 37" d="M14.376,6.862,8.838,12.4,6.293,9.857a.642.642,0,0,0-.454-.187.637.637,0,0,0-.452,1.088l2.991,2.993a.633.633,0,0,0,.451.187h0a.631.631,0,0,0,.449-.186l6-5.989a.638.638,0,1,0-.9-.9" transform="translate(386.476 46.679)" fill="#4bb58c" stroke="#4bb58c" stroke-width="1.5"/>
    </g>
  </g>
</svg>
