<svg id="Component_521_3" data-name="Component 521 – 3" xmlns="http://www.w3.org/2000/svg" width="44" height="44" viewBox="0 0 44 44">
  <path id="Path_18" data-name="Path 18" d="M22,0A22,22,0,1,1,0,22,22,22,0,0,1,22,0Z" fill="#f4f8fb"/>
  <g id="Group_166" data-name="Group 166" transform="translate(-1271.235 -50.817)">
    <path id="Subtraction_49" data-name="Subtraction 49" d="M1.139,8.244H.583V8.235A8.82,8.82,0,0,1,.683,4.6C-.142,3.694-.148,1.365.286.384.4.133.53,0,.671,0A.34.34,0,0,1,.9.114,1.867,1.867,0,0,0,2.415.7c.28,0,.608-.023,1.022-.051h.019C4.142.6,5.08.534,6.388.534,7.74.534,9.417.786,9.73,1.991c2.677,1.958,1.818,6.208,1.809,6.25l-.555,0a6.061,6.061,0,0,0-1.2-3.725,4.582,4.582,0,0,0-3.72-1.649,4.582,4.582,0,0,0-3.72,1.649,6.059,6.059,0,0,0-1.2,3.725Z" transform="translate(1287.119 60.855)" fill="#101011" stroke="rgba(0,0,0,0)" stroke-miterlimit="10" stroke-width="1"/>
    <path id="Union_2" data-name="Union 2" d="M1.528,14.057l1.639-.539a1.025,1.025,0,0,0,.708-.989l-.015-1.691A6.253,6.253,0,0,1,2.127,8.18C-.8,8.776-.141,4.7.8,4.7a1.507,1.507,0,0,1,.88.286C1.84,2.368,3.353,0,6.585,0s4.745,2.368,4.908,4.987a1.507,1.507,0,0,1,.88-.286c.937,0,1.6,4.075-1.33,3.48a6.322,6.322,0,0,1-1.66,2.592L9.4,12.544a1.025,1.025,0,0,0,.708.969l1.361.447a5.334,5.334,0,0,1-9.94.1Z" transform="translate(1286.595 63.722)" fill="#101011" stroke="rgba(0,0,0,0)" stroke-miterlimit="10" stroke-width="1" opacity="0.2"/>
    <path id="Path" d="M3.452,1.619c-1.387.1-1.863.13-2.552-.533C.452.655.1,1.51.018,2.617-.093,1.119.325-.438.9.114c.689.662,1.165.629,2.552.533C4.151.6,5.081.533,6.385.533c2.521,0,3.186.854,3.342,1.457,1.828,1.338,2.018,3.688,1.945,5.095A5.292,5.292,0,0,0,9.727,2.963c-.156-.6-.821-1.457-3.342-1.457C5.08,1.506,4.151,1.57,3.452,1.619Z" transform="translate(1287.121 60.856)" fill="#101011"/>
    <path id="Path-2" data-name="Path" d="M0,5.645C0-.672,4.923.023,4.923.023S9.846-.672,9.846,5.645c0,0-.62-2.611-2.042-3.323-.3-.152-.519-.058-.854.089a4.486,4.486,0,0,1-2.027.419A4.486,4.486,0,0,1,2.9,2.411c-.335-.147-.551-.241-.854-.089C.62,3.034,0,5.645,0,5.645Z" transform="translate(1288.257 63.056)" fill="#101011"/>
    <path id="Path-3" data-name="Path" d="M19.81,6.083a3.242,3.242,0,0,0-1.99-1.857L13.373,2.766a1.03,1.03,0,0,1-.709-.97L12.649,0A4.1,4.1,0,0,1,9.9,1.094,4.1,4.1,0,0,1,7.128.049l.015,1.733a1.03,1.03,0,0,1-.709.988L1.988,4.228A3.242,3.242,0,0,0,0,6.077a13.675,13.675,0,0,0,9.908,4.232A13.675,13.675,0,0,0,19.81,6.083Z" transform="translate(1283.329 74.471)" fill="#101011"/>
  </g>
</svg>
