<svg id="Component_552_2" data-name="Component 552 – 2" xmlns="http://www.w3.org/2000/svg" width="130" height="130" viewBox="0 0 130 130">
  <rect id="Rectangle_78" data-name="Rectangle 78" width="130" height="130" rx="65" fill="#f4f8fb"/>
  <g id="Group_166" data-name="Group 166" transform="translate(-1245.241 -28.279)">
    <path id="Subtraction_49" data-name="Subtraction 49" d="M3.084,22.32h0l-1.5,0h0l0-.022a23.88,23.88,0,0,1,.274-9.836C-.385,10-.4,3.7.774,1.039,1.075.36,1.436,0,1.816,0a.922.922,0,0,1,.629.307A5.056,5.056,0,0,0,6.537,1.894c.758,0,1.645-.061,2.768-.138l.052,0c1.856-.132,4.4-.307,7.939-.307,3.659,0,8.2.683,9.049,3.945,7.248,5.3,4.923,16.807,4.9,16.92l-1.5.006a16.408,16.408,0,0,0-3.256-10.085A12.4,12.4,0,0,0,16.412,7.767,12.4,12.4,0,0,0,6.34,12.231,16.4,16.4,0,0,0,3.084,22.317Z" transform="translate(1293.588 60.855)" fill="#7b858e" stroke="rgba(0,0,0,0)" stroke-width="1"/>
    <path id="Union_2" data-name="Union 2" d="M4.136,38.056,8.574,36.6a2.775,2.775,0,0,0,1.918-2.678l-.04-4.578a16.93,16.93,0,0,1-4.694-7.192c-7.936,1.611-6.138-9.421-3.6-9.421a4.08,4.08,0,0,1,2.383.775C4.982,6.411,9.077,0,17.828,0S30.673,6.411,31.116,13.5a4.08,4.08,0,0,1,2.383-.775c2.537,0,4.334,11.032-3.6,9.421A17.116,17.116,0,0,1,25.4,29.164l.041,4.8a2.775,2.775,0,0,0,1.918,2.623L31.047,37.8a14.442,14.442,0,0,1-26.911.261Z" transform="translate(1292.171 68.616)" fill="#7b858e" stroke="rgba(0,0,0,0)" stroke-width="1" opacity="0.2"/>
    <path id="Path" d="M9.345,4.383c-3.754.262-5.043.351-6.909-1.442C1.223,1.774.268,4.087.049,7.085-.253,3.03.881-1.187,2.436.308,4.3,2.1,5.592,2.012,9.347,1.75c1.891-.132,4.408-.307,7.94-.307,6.825,0,8.626,2.313,9.047,3.945,4.95,3.622,5.465,9.985,5.266,13.793C31.4,15.5,30.263,10.9,26.334,8.021c-.422-1.632-2.223-3.945-9.047-3.945C13.754,4.076,11.237,4.251,9.345,4.383Z" transform="translate(1293.596 60.857)" fill="#7b858e"/>
    <path id="Path-2" data-name="Path" d="M0,15.282C0-1.819,13.328.061,13.328.061s13.328-1.88,13.328,15.221c0,0-1.678-7.068-5.528-9-.822-.412-1.406-.156-2.313.241a12.145,12.145,0,0,1-5.487,1.136A12.144,12.144,0,0,1,7.841,6.527c-.907-.4-1.491-.653-2.313-.241C1.678,8.214,0,15.282,0,15.282Z" transform="translate(1296.671 66.813)" fill="#7b858e"/>
    <path id="Path-3" data-name="Path" d="M53.633,16.47a8.777,8.777,0,0,0-5.387-5.026L36.206,7.487a2.789,2.789,0,0,1-1.918-2.625L34.244,0A11.087,11.087,0,0,1,26.8,2.961,11.092,11.092,0,0,1,19.3.132l.041,4.692A2.789,2.789,0,0,1,17.42,7.5L5.383,11.446A8.777,8.777,0,0,0,0,16.452,37.024,37.024,0,0,0,26.826,27.911,37.024,37.024,0,0,0,53.633,16.47Z" transform="translate(1283.329 97.717)" fill="#7b858e"/>
  </g>
</svg>
