<svg id="Group_189" data-name="Group 189" xmlns="http://www.w3.org/2000/svg" width="44" height="44" viewBox="0 0 44 44">
  <circle id="Ellipse_8" data-name="Ellipse 8" cx="22" cy="22" r="22" fill="#637381" opacity="0.002"/>
  <g id="Group_190" data-name="Group 190" transform="translate(12 12)">
    <g id="_gr" data-name="#gr">
      <rect id="Rectangle" width="20" height="20" opacity="0"/>
      <path id="Shape" d="M14.167,15a.833.833,0,0,1-.591-.247L10.75,11.925a6.63,6.63,0,0,1-4.075,1.408H6.667a6.689,6.689,0,1,1,5.258-2.583l2.833,2.824A.838.838,0,0,1,14.167,15ZM6.667,1.667a5,5,0,1,0,5,5A5.006,5.006,0,0,0,6.667,1.667Z" transform="translate(2.498 2.498)" fill="#637381"/>
    </g>
  </g>
</svg>
