<svg xmlns="http://www.w3.org/2000/svg" width="58" height="58" viewBox="0 0 58 58">
  <g id="Group_521" data-name="Group 521" transform="translate(-366.311 -23.467)">
    <rect id="Rectangle_58" data-name="Rectangle 58" width="58" height="58" transform="translate(366.311 23.467)" fill="#101011" opacity="0"/>
    <circle id="Ellipse_23" data-name="Ellipse 23" cx="22.5" cy="22.5" r="22.5" transform="translate(370.311 30.467)" fill="#4bb58c" opacity="0.125"/>
    <path id="Shape" d="M.008,4.269a3.016,3.016,0,1,1,2.13.881A3.016,3.016,0,0,1,.008,4.269Z" transform="translate(373.022 27.318)" fill="#4bb58c" opacity="0.25"/>
    <path id="Path" d="M7.165,5.822A1.489,1.489,0,0,1,6.11,5.384L4.329,3.6,2.548,5.384A1.493,1.493,0,0,1,.437,3.273L3.274.437a1.493,1.493,0,0,1,2.111,0L8.221,3.273A1.493,1.493,0,0,1,7.165,5.822Z" transform="translate(413.257 31.078)" fill="#4bb58c" opacity="0.3"/>
    <g id="Group_525" data-name="Group 525" transform="translate(-160.771 -164.817)">
      <circle id="Ellipse_21" data-name="Ellipse 21" cx="6.207" cy="6.207" r="6.207" transform="translate(544.894 209.571)" fill="#4bb58c" opacity="0.296"/>
      <g id="Group_523" data-name="Group 523" transform="translate(541.469 209.571)">
        <circle id="Ellipse_22" data-name="Ellipse 22" cx="6.207" cy="6.207" r="6.207" transform="translate(3.426 0)" fill="none" stroke="#4bb58c" stroke-width="2.2"/>
        <path id="Path_35" data-name="Path 35" d="M16,72.984a10.58,10.58,0,0,1,17.31,0" transform="translate(-15.996 -55.559)" fill="none" stroke="#4bb58c" stroke-linecap="round" stroke-linejoin="round" stroke-width="2.2"/>
      </g>
    </g>
    <path id="Path_38" data-name="Path 38" d="M9.263-7.762a3.943,3.943,0,0,1-.507,2.007A3.635,3.635,0,0,1,7.4-4.39,3.621,3.621,0,0,1,5.568-3.9a2.208,2.208,0,0,1-.338-.019L4.95-1.1H3.889L3.628-5.726A4.184,4.184,0,0,0,4.7-5.6a2.423,2.423,0,0,0,1.886-.685,2.393,2.393,0,0,0,.622-1.669,2.161,2.161,0,0,0-.685-1.713,2.411,2.411,0,0,0-1.65-.6A2.314,2.314,0,0,0,3.1-9.61,2.677,2.677,0,0,0,2.48-7.7v.376H.551a3.985,3.985,0,0,1-.019-.55,4.069,4.069,0,0,1,.642-2.383,3.581,3.581,0,0,1,1.64-1.312,5.448,5.448,0,0,1,2.021-.4A4.49,4.49,0,0,1,8.105-10.84,4.1,4.1,0,0,1,9.263-7.762ZM3.136,2.813V.246H5.684V2.813Z" transform="translate(397.196 50.655)" fill="#4bb58c"/>
  </g>
</svg>
